<svg id="Layer_1" data-name="Layer 1" xmlns="http://www.w3.org/2000/svg" xmlns:xlink="http://www.w3.org/1999/xlink" viewBox="0 0 500 163.56"><defs><style>.cls-1{fill:none;}.cls-2{clip-path:url(#clip-path);}.cls-3{fill:url(#linear-gradient);}.cls-4{fill:url(#linear-gradient-2);}.cls-5{fill:url(#linear-gradient-3);}.cls-6{fill:url(#linear-gradient-4);}.cls-7{fill:#f9f9f9;}.cls-8{fill:#f9f9fa;}</style><clipPath id="clip-path" transform="translate(-1930 -168.63)"><path class="cls-1" d="M2037,236l-22.65-13.08-43.69-25.22c-2.43-1.4-4.84-.55-4.84,2.37V302.81c0,2.19,1.73,3.14,3.83,1.92l44.69-25.81L2037,265.85l21.77-12.57c2.55-1.48,2.31-3.5.15-4.66S2037,236,2037,236Z"/></clipPath><linearGradient id="linear-gradient" x1="1140.53" y1="286.28" x2="1140.53" y2="246.72" gradientTransform="matrix(2.81, 0, 0, -2.81, -3143.9, 831.81)" gradientUnits="userSpaceOnUse"><stop offset="0" stop-color="#257cb0"/><stop offset="0.29" stop-color="#4a93b5"/><stop offset="0.77" stop-color="#78bcbb"/><stop offset="1" stop-color="#89cfbd"/></linearGradient><linearGradient id="linear-gradient-2" x1="1130.56" y1="276.46" x2="1155.86" y2="276.46" gradientTransform="matrix(2.81, 0, 0, -2.81, -3143.9, 831.81)" gradientUnits="userSpaceOnUse"><stop offset="0" stop-color="#52c1ad"/><stop offset="1" stop-color="#dee89a"/></linearGradient><linearGradient id="linear-gradient-3" x1="1143.21" y1="266.5" x2="1143.21" y2="246.58" gradientTransform="matrix(2.81, 0, 0, -2.81, -3143.9, 831.81)" gradientUnits="userSpaceOnUse"><stop offset="0" stop-color="#ec413d"/><stop offset="0.17" stop-color="#da4452"/><stop offset="0.57" stop-color="#b0487a"/><stop offset="0.86" stop-color="#954a92"/><stop offset="1" stop-color="#8a4a9d"/></linearGradient><linearGradient id="linear-gradient-4" x1="1157.78" y1="271.82" x2="1157.78" y2="261.19" gradientTransform="matrix(2.81, 0, 0, -2.81, -3143.9, 831.81)" gradientUnits="userSpaceOnUse"><stop offset="0" stop-color="#f58879"/><stop offset="0.12" stop-color="#f69079"/><stop offset="0.71" stop-color="#fcb877"/><stop offset="1" stop-color="#fec874"/></linearGradient></defs><title>download-playstore</title><path d="M2430,310.09a22.1,22.1,0,0,1-22.1,22.1H1952.1a22.11,22.11,0,0,1-22.1-22.1V190.74a22.11,22.11,0,0,1,22.1-22.1h455.8a22.1,22.1,0,0,1,22.1,22.1V310.09h0Z" transform="translate(-1930 -168.63)"/><g id="PLAY"><g class="cls-2"><polygon class="cls-3" points="35.78 26.64 35.78 82.27 35.78 137.91 91.89 82.28 35.78 26.64"/></g><g class="cls-2"><polygon class="cls-4" points="106.96 67.33 84.31 54.26 35.78 26.24 35.78 26.64 91.89 82.28 106.96 67.33"/></g><g class="cls-2"><polygon class="cls-5" points="35.78 137.91 35.78 138.31 84.31 110.29 106.96 97.22 91.89 82.28 35.78 137.91"/></g><g class="cls-2"><polygon class="cls-6" points="106.96 67.33 91.89 82.28 106.96 97.22 132.84 82.27 106.96 67.33"/></g></g><path class="cls-7" d="M2310.6,280.93a13.05,13.05,0,0,1-5.38-1.09,10.14,10.14,0,0,1-4.09-3.34h-0.33a40.54,40.54,0,0,1,.33,5v12.41h-4.57v-43.7h3.71l0.63,4.13h0.22a10.62,10.62,0,0,1,4.1-3.58,12.46,12.46,0,0,1,5.36-1.1q6,0,9.26,4.1t3.26,11.5q0,7.43-3.31,11.55A11.17,11.17,0,0,1,2310.6,280.93Zm-0.66-27.38q-4.62,0-6.69,2.56t-2.12,8.15v1q0,6.36,2.12,9.1t6.8,2.74a7.07,7.07,0,0,0,6.13-3.16q2.21-3.16,2.21-8.73t-2.21-8.65A7.29,7.29,0,0,0,2309.94,253.55Z" transform="translate(-1930 -168.63)"/><path class="cls-7" d="M2333.7,280.38h-4.57V237.56h4.57v42.82Z" transform="translate(-1930 -168.63)"/><path class="cls-7" d="M2360,280.38l-0.91-4.29h-0.22a12.65,12.65,0,0,1-4.5,3.84,13.69,13.69,0,0,1-5.6,1,10.08,10.08,0,0,1-7-2.31,8.42,8.42,0,0,1-2.55-6.58q0-9.13,14.61-9.58l5.12-.17v-1.87q0-3.55-1.53-5.24t-4.88-1.69a19.9,19.9,0,0,0-8.53,2.31l-1.4-3.49a21.46,21.46,0,0,1,4.89-1.9,21.15,21.15,0,0,1,5.32-.69q5.39,0,8,2.39t2.6,7.68v20.58H2360Zm-10.32-3.22a9.28,9.28,0,0,0,6.7-2.34,8.66,8.66,0,0,0,2.44-6.55v-2.72l-4.57.19q-5.45.2-7.86,1.7a5.1,5.1,0,0,0-2.41,4.66,4.7,4.7,0,0,0,1.5,3.77A6.22,6.22,0,0,0,2349.65,277.16Z" transform="translate(-1930 -168.63)"/><path class="cls-7" d="M2366,250.22h4.9l6.61,17.2a65.72,65.72,0,0,1,2.7,8.5h0.22q0.36-1.41,1.5-4.8t7.47-20.9h4.9l-13,34.35q-1.93,5.09-4.5,7.23a9.57,9.57,0,0,1-6.31,2.13,18.44,18.44,0,0,1-4.13-.47v-3.66a16,16,0,0,0,3.39.33q4.71,0,6.72-5.28l1.68-4.29Z" transform="translate(-1930 -168.63)"/><path class="cls-7" d="M2226,253a10.64,10.64,0,0,1,4.48,8.52c0,4.67-2.65,6.88-5.3,9-0.82.82-1.77,1.71-1.77,3.09a3.46,3.46,0,0,0,1.64,2.71l2.27,1.76c2.78,2.34,5.3,4.48,5.3,8.84,0,5.93-5.74,11.92-16.59,11.92-9.15,0-13.56-4.35-13.56-9a9.08,9.08,0,0,1,4.86-7.7c3.91-2.4,9.21-2.71,12-2.9a6.6,6.6,0,0,1-1.89-4.29,5.7,5.7,0,0,1,.63-2.46c-0.7.06-1.39,0.13-2,.13-6.68,0-10.47-5-10.47-9.9a11.35,11.35,0,0,1,4-8.45c3.6-3,7.89-3.47,11.3-3.47h13l-4,2.27H2226Zm-4.48,28A9.79,9.79,0,0,0,2220,281a25.24,25.24,0,0,0-6.63,1c-1.39.5-5.43,2-5.43,6.5s4.36,7.7,11.11,7.7c6.05,0,9.27-2.91,9.27-6.82C2228.38,286.13,2226.29,284.44,2221.5,281Zm1.83-12a6.38,6.38,0,0,0,1.57-4.61c0-4.54-2.71-11.61-7.95-11.61a5.89,5.89,0,0,0-4.42,2.08,7.29,7.29,0,0,0-1.39,4.67c0,4.23,2.46,11.23,7.89,11.23A6.46,6.46,0,0,0,2223.33,269Z" transform="translate(-1930 -168.63)"/><path class="cls-7" d="M2186.26,280a14.86,14.86,0,0,1-15.37-14.87c0-8.25,6.74-15.3,16.32-15.3a14.72,14.72,0,0,1,15,14.86C2202.26,272.14,2196.53,280,2186.26,280Zm7.87-5.1a11.39,11.39,0,0,0,1.89-7c0-5.54-2.65-16.12-10.46-16.12a8.77,8.77,0,0,0-5.67,2.15c-2.46,2.2-2.9,5-2.9,7.69,0,6.23,3.09,16.49,10.71,16.49A8,8,0,0,0,2194.13,274.92Z" transform="translate(-1930 -168.63)"/><path class="cls-7" d="M2152.12,280a14.86,14.86,0,0,1-15.37-14.87c0-8.25,6.74-15.3,16.32-15.3a14.72,14.72,0,0,1,15.05,14.86C2168.12,272.14,2162.39,280,2152.12,280Zm7.87-5.1a11.41,11.41,0,0,0,1.89-7c0-5.54-2.65-16.12-10.46-16.12a8.77,8.77,0,0,0-5.67,2.15c-2.46,2.2-2.9,5-2.9,7.69,0,6.23,3.08,16.49,10.71,16.49A8.05,8.05,0,0,0,2160,274.92Z" transform="translate(-1930 -168.63)"/><path class="cls-7" d="M2131.94,279l-9.06,2.09a67.12,67.12,0,0,1-10.45,1.07c-17.48,0-24.13-12.86-24.13-22.92,0-12.28,9.43-23.68,25.58-23.68a36.49,36.49,0,0,1,9.69,1.33,24.71,24.71,0,0,1,8.36,3.93l-5.26,5-2.22.5,1.58-2.53c-2.15-2.09-6.08-5.95-13.55-5.95-10,0-17.54,7.6-17.54,18.68,0,11.9,8.61,23.11,22.42,23.11a18.86,18.86,0,0,0,8-1.58V267.89l-9.56.51,5.06-2.73h13.43l-1.64,1.58a1.48,1.48,0,0,0-.63,1c-0.07.57-.13,2.41-0.13,3V279h0Z" transform="translate(-1930 -168.63)"/><path class="cls-7" d="M2246,277.21c-2.09-.19-2.53-0.57-2.53-3V238.33c0-.14,0-0.28,0-0.41,0.26-2.22.89-2.6,2.85-3.74h-9.06l-4.75,2.28h4.84v39.1c0,1.26-.25,1.46-1.71,3.35h11.21l2.34-1.39C2248.15,277.4,2247.07,277.34,2246,277.21Z" transform="translate(-1930 -168.63)"/><path class="cls-7" d="M2271.76,277.79c-0.69.38-1.38,0.82-2.07,1.13a14.66,14.66,0,0,1-6.11,1.2,13.44,13.44,0,0,1-8.36-2.45c-4.46-3.15-6.41-8.56-6.41-13.27,0-9.75,7.92-14.53,14.4-14.53a12.22,12.22,0,0,1,6.48,1.76,10.41,10.41,0,0,1,4.4,6.22l-14.77,6-4.84.38c1.57,8,7,12.64,13,12.64a16.25,16.25,0,0,0,7.67-2.2ZM2265.85,259c1.19-.44,1.82-0.82,1.82-1.7,0-2.51-2.83-5.41-6.23-5.41-2.52,0-7.23,2-7.23,8.74,0,1.07.13,2.2,0.19,3.34Z" transform="translate(-1930 -168.63)"/><path class="cls-7" d="M2277.83,242.52v4.15h-0.5v-4.15H2276v-0.43h3.25v0.43h-1.37Z" transform="translate(-1930 -168.63)"/><path class="cls-7" d="M2283.49,246.67v-4.19h0l-1.28,4.19h-0.39l-1.29-4.19h0v4.19H2280v-4.58h0.78l1.17,3.7h0l1.15-3.7h0.8v4.58h-0.45Z" transform="translate(-1930 -168.63)"/><path class="cls-8" d="M2104.73,214.84h-4.11a27.17,27.17,0,0,0-1.17-4.81h-5.94a24.84,24.84,0,0,0-1.21,4.81h-3.87q0-.5,3-8.23t3-8.51h4.86a70.82,70.82,0,0,0,2.72,8.39A73.64,73.64,0,0,1,2104.73,214.84Zm-5.94-7.26a72.27,72.27,0,0,1-2.2-7.17h-0.21q0,0.5-2.27,7.17h4.68Z" transform="translate(-1930 -168.63)"/><path class="cls-8" d="M2121.3,214.84h-3.17q0-.53-3.53-5.56-3.7-5.31-4.22-7.26h-0.21a45.27,45.27,0,0,1,.32,5.09q0,3.17.18,7.74h-3.16q0.19-4,.19-8.75t-0.19-8h3.82q0,0.68,3.17,5.44,3.38,5.05,3.88,6.85h0.19a48.5,48.5,0,0,1-.31-5.14q0-3.48-.18-7.15h3.21q-0.18,3.19-.18,8T2121.3,214.84Z" transform="translate(-1930 -168.63)"/><path class="cls-8" d="M2139.93,205.89a9.48,9.48,0,0,1-2.34,6.37A8.17,8.17,0,0,1,2131,215q-1.9,0-5.24-.15,0.17-3.88.17-8.75,0-4.68-.17-8H2128l1.65,0,1.43,0q4.64,0,6.73,2.31A8,8,0,0,1,2139.93,205.89Zm-3.51.55a6.2,6.2,0,0,0-1.44-4.16,5.46,5.46,0,0,0-4.4-1.69,13.4,13.4,0,0,0-1.52.12q0.13,2.57.13,5.37,0,3.07.13,6.09a8.5,8.5,0,0,0,1.67.17,4.85,4.85,0,0,0,4.09-1.72A6.62,6.62,0,0,0,2136.42,206.44Z" transform="translate(-1930 -168.63)"/><path class="cls-8" d="M2157.11,214.84h-3.8a25.24,25.24,0,0,0-2.29-5.62,3,3,0,0,0-2.57-1.07H2147q0,3.3.12,6.67h-3.57q0.17-3.88.17-8.75,0-4.68-.17-8h2.22l1.61,0q1.23,0,2.27,0,5.9,0,5.9,4,0,3.2-3.37,4.46v0.19a4,4,0,0,1,2.27,2A44.83,44.83,0,0,1,2157.11,214.84ZM2152.29,203q0-2.56-3.29-2.56a11.29,11.29,0,0,0-2.13.18q0.14,2,.14,5.19l1.2,0Q2152.29,205.85,2152.29,203Z" transform="translate(-1930 -168.63)"/><path class="cls-8" d="M2175.53,206.16a9.23,9.23,0,0,1-2.42,6.54,7.84,7.84,0,0,1-6,2.6,7.55,7.55,0,0,1-5.68-2.38,8.39,8.39,0,0,1-2.29-6.06,9.23,9.23,0,0,1,2.42-6.54,7.84,7.84,0,0,1,6-2.6,7.56,7.56,0,0,1,5.68,2.38A8.39,8.39,0,0,1,2175.53,206.16Zm-3.55.37a6.64,6.64,0,0,0-1.37-4.36,4.23,4.23,0,0,0-3.39-1.67,3.92,3.92,0,0,0-3.19,1.68,6.72,6.72,0,0,0-1.31,4.25,6.62,6.62,0,0,0,1.38,4.35,4.23,4.23,0,0,0,3.39,1.68,3.92,3.92,0,0,0,3.19-1.69A6.72,6.72,0,0,0,2172,206.53Z" transform="translate(-1930 -168.63)"/><path class="cls-8" d="M2182.8,214.84h-3.64q0.17-4,.17-8.75t-0.17-8h3.64q-0.17,3.24-.17,8T2182.8,214.84Z" transform="translate(-1930 -168.63)"/><path class="cls-8" d="M2201.43,205.89a9.48,9.48,0,0,1-2.34,6.37,8.17,8.17,0,0,1-6.56,2.72q-1.9,0-5.24-.15,0.17-3.88.17-8.75,0-4.68-.17-8h2.25l1.65,0,1.43,0q4.64,0,6.73,2.31A8,8,0,0,1,2201.43,205.89Zm-3.51.55a6.2,6.2,0,0,0-1.44-4.16,5.46,5.46,0,0,0-4.4-1.69,13.4,13.4,0,0,0-1.52.12q0.13,2.57.13,5.37,0,3.07.13,6.09a8.5,8.5,0,0,0,1.67.17,4.85,4.85,0,0,0,4.09-1.72A6.62,6.62,0,0,0,2197.92,206.44Z" transform="translate(-1930 -168.63)"/><path class="cls-8" d="M2226.14,214.84H2222a27.11,27.11,0,0,0-1.17-4.81h-5.94a24.85,24.85,0,0,0-1.21,4.81h-3.87q0-.5,3-8.23t3-8.51h4.86a71.08,71.08,0,0,0,2.72,8.39A73.94,73.94,0,0,1,2226.14,214.84Zm-5.94-7.26a72.5,72.5,0,0,1-2.2-7.17h-0.21q0,0.5-2.27,7.17h4.68Z" transform="translate(-1930 -168.63)"/><path class="cls-8" d="M2241.13,202.49a5,5,0,0,1-2.28,4.54,10.15,10.15,0,0,1-5.6,1.47c-0.4,0-.69,0-0.86,0q0,2.42.14,6.37h-3.61q0.17-3.71.17-8.75,0-4.63-.17-8h2.24l1.82,0q1.35,0,2.34,0a7.36,7.36,0,0,1,4.13,1.11A3.74,3.74,0,0,1,2241.13,202.49Zm-3.32.71q0-2.75-3.65-2.75a10.37,10.37,0,0,0-1.93.19q0.14,2.43.14,5.5c0.21,0,.46,0,0.75,0Q2237.82,206.16,2237.82,203.19Z" transform="translate(-1930 -168.63)"/><path class="cls-8" d="M2256.55,202.49a5,5,0,0,1-2.28,4.54,10.15,10.15,0,0,1-5.6,1.47c-0.4,0-.69,0-0.86,0q0,2.42.14,6.37h-3.61q0.17-3.71.17-8.75,0-4.63-.17-8h2.24l1.82,0q1.35,0,2.34,0a7.36,7.36,0,0,1,4.13,1.11A3.74,3.74,0,0,1,2256.55,202.49Zm-3.32.71q0-2.75-3.65-2.75a10.37,10.37,0,0,0-1.93.19q0.14,2.43.14,5.5c0.21,0,.46,0,0.75,0Q2253.23,206.16,2253.23,203.19Z" transform="translate(-1930 -168.63)"/><path class="cls-8" d="M2281.75,206.16a9.23,9.23,0,0,1-2.42,6.54,7.84,7.84,0,0,1-6,2.6,7.55,7.55,0,0,1-5.68-2.38,8.4,8.4,0,0,1-2.29-6.06,9.23,9.23,0,0,1,2.42-6.54,7.84,7.84,0,0,1,6-2.6,7.56,7.56,0,0,1,5.68,2.38A8.39,8.39,0,0,1,2281.75,206.16Zm-3.55.37a6.64,6.64,0,0,0-1.37-4.36,4.23,4.23,0,0,0-3.39-1.67,3.92,3.92,0,0,0-3.19,1.68,6.72,6.72,0,0,0-1.31,4.25,6.62,6.62,0,0,0,1.38,4.35,4.23,4.23,0,0,0,3.39,1.68,3.91,3.91,0,0,0,3.19-1.69A6.72,6.72,0,0,0,2278.21,206.53Z" transform="translate(-1930 -168.63)"/><path class="cls-8" d="M2299.18,214.84H2296q0-.53-3.53-5.56-3.7-5.31-4.22-7.26H2288a45.28,45.28,0,0,1,.32,5.09q0,3.17.18,7.74h-3.16q0.19-4,.19-8.75t-0.19-8h3.82q0,0.68,3.17,5.44,3.38,5.05,3.88,6.85h0.19a48.5,48.5,0,0,1-.31-5.14q0-3.48-.18-7.15h3.21q-0.18,3.19-.18,8T2299.18,214.84Z" transform="translate(-1930 -168.63)"/></svg>