<?xml version="1.0" encoding="utf-8"?>
<!-- Generator: Adobe Illustrator 19.2.1, SVG Export Plug-In . SVG Version: 6.00 Build 0)  -->
<svg version="1.1" xmlns="http://www.w3.org/2000/svg" xmlns:xlink="http://www.w3.org/1999/xlink" x="0px" y="0px" width="1000px"
	 height="1000px" viewBox="0 0 1000 1000" style="enable-background:new 0 0 1000 1000;" xml:space="preserve">
<style type="text/css">
	.st0{fill:#FFFFFF;}
	.st1{fill:#FF8300;}
	.st2{fill:#5B2B82;}
	.st3{fill:#BFBE00;}
	.st4{fill:#333333;}
	.st5{display:none;}
	.st6{display:inline;}
	.st7{fill:none;}
</style>
<g id="Capa_1">
	<g>
		<path class="st0" d="M726.4,184.1C665.9,123.6,585.5,90.4,500,90.4c-85.5,0-165.9,33.3-226.4,93.8
			c-60.4,60.4-93.7,140.9-93.7,226.4c0,85.5,33.3,165.9,93.7,226.3c60.5,60.5,140.8,93.8,226.4,93.8c85.5,0,165.9-33.3,226.4-93.8
			c60.5-60.5,93.7-140.8,93.7-226.3C820.1,325,786.8,244.6,726.4,184.1z"/>
		<path class="st1" d="M763.7,516.2l-78-116.8l59.7-88c7-10.3,4.3-20.6-4.6-24.4c-9-3.7-21.8-0.2-30,9.2l-53.2,61.1l-36.7-55.1
			c-6.9-10.4-22.1-15.8-33.8-12.1c-11.6,3.7-17.3,16.2-12.6,27.8l42.8,86.8l-61.5,69.6c-8.2,9.5-9.4,25.8-2.8,36.3l15.4,24.4
			c6.7,10.6,17.9,10.7,24.9,0.4l51.7-76.2l41.9,76.9c4.7,11.6,18.4,18.3,30.5,15l37-10.1C766.5,537.8,770.7,526.6,763.7,516.2"/>
		<path class="st2" d="M310.3,292.4c-56.4,0-102,54.8-102,122.3c0,67.6,45.7,122.4,102,122.4c56.3,0,102-54.8,102-122.4
			C412.3,347.1,366.6,292.4,310.3,292.4 M310.3,498c-26.2,0-47.5-37.3-47.5-83.2c0-45.9,21.3-83.2,47.5-83.2
			c26.2,0,47.5,37.2,47.5,83.2C357.8,460.7,336.5,498,310.3,498"/>
		<path class="st3" d="M443.7,259.5c-14.3-0.1-19.3,11.8-18.4,23.9l0,156.4c0.5,14.7,7.7,23.7,24.2,23.9l86.2,0.1
			c13.7,0.3,21.1-2.9,22.3-14.1v-27.1c-0.2-12.5-12.9-12.5-21.6-12.3H501c-14-0.1-17.3-2.4-17.9-16.3l0.2-111.1
			c0.3-13-4.2-23.3-18.6-23.4L443.7,259.5z"/>
		<g>
			<path d="M500,91.7c85.3,0,165.5,33.2,225.8,93.5c60.3,60.3,93.5,140.5,93.5,225.8c0,85.3-33.2,165.5-93.5,225.8
				c-60.3,60.3-140.5,93.5-225.8,93.5c-85.3,0-165.5-33.2-225.8-93.5c-60.3-60.3-93.5-140.5-93.5-225.8
				c0-85.3,33.2-165.5,93.5-225.8C334.5,124.9,414.7,91.7,500,91.7 M500,82.6c-87.7,0-170.2,34.2-232.3,96.2
				c-62,62-96.2,144.5-96.2,232.2c0,87.7,34.1,170.2,96.2,232.2c62,62,144.5,96.2,232.3,96.2c87.7,0,170.2-34.2,232.3-96.2
				c62-62,96.2-144.5,96.2-232.2c0-87.8-34.1-170.2-96.2-232.2C670.2,116.8,587.7,82.6,500,82.6L500,82.6z"/>
		</g>
	</g>
	<g>
		<path class="st4" d="M221,806c7.2,0,13.2,1.2,18.2,3.6c4.9,2.4,8.9,5.6,11.9,9.5c3,3.9,5.2,8.4,6.5,13.4c1.3,5,2,10.2,2,15.4
			c0,7.2-1.1,13.5-3.2,18.8c-2.2,5.4-5.2,9.7-9,13.1c-3.9,3.4-8.5,6-14,7.7c-5.5,1.7-11.6,2.6-18.3,2.6h-15.1v55.9h-28.3V806H221z
			 M212.4,869.4c5.6,0,10.2-1.7,13.6-5.1c3.5-3.4,5.2-8.7,5.2-15.9c0-7.1-1.5-12.4-4.5-16.1c-3-3.7-8-5.5-15.1-5.5h-11.8v42.6H212.4
			z"/>
		<path class="st4" d="M268.9,870.4c0-6.1,1-11.3,2.9-15.4c2-4.1,4.6-7.5,7.9-10c3.3-2.6,7.3-4.4,11.8-5.5c4.5-1.1,9.3-1.7,14.4-1.7
			c8.1,0,14.7,0.8,19.6,2.4c5,1.6,8.8,3.8,11.6,6.7c2.7,2.9,4.6,6.3,5.6,10.3c1,4,1.5,8.3,1.5,13.1v55.5c0,5,0.2,8.8,0.7,11.6
			c0.5,2.7,1.3,5.7,2.6,8.8h-25.9c-0.9-1.7-1.6-3.5-2.1-5.4c-0.5-1.9-0.9-3.8-1.3-5.6H318c-3.1,5.5-6.8,9.1-10.9,10.7
			s-9.5,2.5-16,2.5c-4.7,0-8.7-0.8-12-2.5c-3.3-1.6-5.9-3.9-7.8-6.8c-2-2.9-3.4-6.1-4.3-9.7c-0.9-3.6-1.4-7.2-1.4-10.7
			c0-5,0.5-9.3,1.6-12.9c1-3.6,2.6-6.7,4.8-9.2c2.2-2.6,4.9-4.7,8.2-6.4c3.3-1.7,7.4-3.2,12.1-4.5l15.3-4.1c4.1-1,6.9-2.5,8.4-4.3
			c1.6-1.8,2.4-4.5,2.4-8c0-4.1-1-7.2-2.8-9.5c-1.9-2.3-5.1-3.4-9.7-3.4c-4.2,0-7.3,1.2-9.4,3.7c-2.1,2.5-3.1,5.8-3.1,10v2.9h-24.3
			V870.4z M312.5,896.8c-2.1,0.9-4,1.5-5.7,1.9c-5.5,1.2-9.4,3.1-11.8,5.9c-2.4,2.7-3.5,6.5-3.5,11.2c0,4.1,0.8,7.5,2.4,10.4
			c1.6,2.9,4.2,4.3,7.8,4.3c1.8,0,3.7-0.3,5.7-0.9c2-0.6,3.8-1.5,5.4-2.8c1.6-1.3,3-3,4-5.1c1-2.1,1.6-4.6,1.6-7.5v-20.8
			C316.5,894.8,314.6,895.9,312.5,896.8z"/>
		<path class="st4" d="M391.6,880h0.4l27.3-39.4h29.8l-30.4,41.6l34.9,64h-29.8l-22.6-43.4l-9.6,12.6v30.8h-27.1V806h27.1V880z"/>
		<path class="st4" d="M489.7,804.5v23.2h-27.1v-23.2H489.7z M489.7,840.6v105.6h-27.1V840.6H489.7z"/>
		<path class="st4" d="M528.6,915.1c0,4.6,1.2,8.3,3.6,11.1c2.4,2.8,5.9,4.2,10.5,4.2c4.2,0,7.5-1,10-3.1c2.5-2.1,3.7-5.2,3.7-9.4
			c0-3.4-1-6-2.9-7.8c-2-1.8-4.3-3.2-6.9-4.2l-19-6.9c-7.5-2.6-13.1-6.3-16.9-11.1c-3.8-4.8-5.7-10.9-5.7-18.3
			c0-4.3,0.7-8.4,2.2-12.3c1.4-3.9,3.7-7.2,6.9-10.1c3.1-2.9,7.2-5.2,12.1-6.9c4.9-1.7,10.8-2.6,17.8-2.6c12.3,0,21.4,2.6,27.3,7.8
			c5.9,5.2,8.8,12.6,8.8,22.2v4.3h-24.3c0-5.5-0.9-9.5-2.6-12.1c-1.8-2.6-4.9-3.8-9.3-3.8c-3.4,0-6.4,1-8.9,2.8
			c-2.6,1.9-3.8,4.7-3.8,8.5c0,2.6,0.8,5,2.5,7.1c1.6,2.1,4.7,3.9,9.3,5.3l16.3,5.5c8.5,2.9,14.5,6.6,18.1,11.3
			c3.5,4.6,5.3,11,5.3,18.9c0,5.6-1,10.5-2.9,14.6c-2,4.1-4.7,7.6-8.1,10.3c-3.5,2.7-7.6,4.7-12.4,5.9c-4.8,1.2-10,1.8-15.8,1.8
			c-7.6,0-13.9-0.7-18.9-2.2c-5-1.4-9-3.6-12-6.5c-2.9-2.9-5-6.4-6.2-10.5c-1.2-4.1-1.8-8.7-1.8-13.8v-3.7h24.3V915.1z"/>
		<path class="st4" d="M628.8,810.3v30.2h15.7V859h-15.7v57.1c0,4.2,0.6,7.2,1.9,8.9c1.2,1.8,3.8,2.6,7.8,2.6c1,0,2.1,0,3.1-0.1
			c1-0.1,2-0.2,2.9-0.3v18.8c-3,0-5.9,0.1-8.7,0.3c-2.8,0.2-5.8,0.3-8.9,0.3c-5.2,0-9.5-0.4-12.9-1.1c-3.3-0.7-5.9-2.2-7.7-4.3
			c-1.8-2.2-3-5-3.6-8.5c-0.7-3.5-1-8-1-13.3V859H588v-18.4h13.7v-30.2H628.8z"/>
		<path class="st4" d="M653.8,870.4c0-6.1,1-11.3,2.9-15.4c2-4.1,4.6-7.5,7.9-10c3.3-2.6,7.3-4.4,11.8-5.5c4.5-1.1,9.3-1.7,14.4-1.7
			c8.1,0,14.7,0.8,19.6,2.4c5,1.6,8.8,3.8,11.6,6.7c2.7,2.9,4.6,6.3,5.6,10.3c1,4,1.5,8.3,1.5,13.1v55.5c0,5,0.2,8.8,0.7,11.6
			c0.5,2.7,1.3,5.7,2.6,8.8h-25.9c-0.9-1.7-1.6-3.5-2.1-5.4c-0.5-1.9-0.9-3.8-1.3-5.6h-0.4c-3.1,5.5-6.8,9.1-10.9,10.7
			c-4.1,1.6-9.5,2.5-16,2.5c-4.7,0-8.7-0.8-12-2.5c-3.3-1.6-5.9-3.9-7.8-6.8c-2-2.9-3.4-6.1-4.3-9.7c-0.9-3.6-1.4-7.2-1.4-10.7
			c0-5,0.5-9.3,1.6-12.9c1-3.6,2.6-6.7,4.8-9.2c2.2-2.6,4.9-4.7,8.2-6.4c3.3-1.7,7.4-3.2,12.1-4.5l15.3-4.1c4.1-1,6.9-2.5,8.4-4.3
			c1.6-1.8,2.4-4.5,2.4-8c0-4.1-1-7.2-2.8-9.5c-1.9-2.3-5.1-3.4-9.7-3.4c-4.2,0-7.3,1.2-9.4,3.7c-2.1,2.5-3.1,5.8-3.1,10v2.9h-24.3
			V870.4z M697.3,896.8c-2.1,0.9-4,1.5-5.7,1.9c-5.5,1.2-9.4,3.1-11.8,5.9c-2.4,2.7-3.5,6.5-3.5,11.2c0,4.1,0.8,7.5,2.4,10.4
			c1.6,2.9,4.2,4.3,7.9,4.3c1.8,0,3.7-0.3,5.7-0.9c2-0.6,3.8-1.5,5.4-2.8c1.6-1.3,3-3,4-5.1c1-2.1,1.6-4.6,1.6-7.5v-20.8
			C701.4,894.8,699.4,895.9,697.3,896.8z"/>
		<path class="st4" d="M774.2,840.6v12.4h0.4c2.9-5.2,6.6-9.1,11.2-11.5c4.6-2.4,9.8-3.6,15.7-3.6c8.6,0,15.3,2.4,19.9,7.1
			c4.6,4.7,7,12.4,7,23v78.3h-27.1v-72.8c0-5.5-0.9-9.3-2.7-11.5c-1.8-2.2-4.8-3.2-8.8-3.2c-9.6,0-14.3,5.8-14.3,17.5v70.1h-27.1
			V840.6H774.2z"/>
	</g>
</g>
<g id="Capa_2" class="st5">
	<g class="st6">
		<path class="st0" d="M775.7,223.7C702.1,150,604.2,109.5,500,109.5c-104.2,0-202.1,40.6-275.7,114.2
			c-73.6,73.6-114.2,171.6-114.2,275.7c0,104.1,40.5,202,114.2,275.7c73.6,73.6,171.6,114.2,275.7,114.2
			c104.1,0,202.1-40.6,275.7-114.2c73.6-73.7,114.2-171.5,114.2-275.7C889.9,395.2,849.4,297.3,775.7,223.7z"/>
		<path class="st1" d="M821.2,628.1l-95-142.3L799,378.6c8.6-12.5,5.2-25.1-5.7-29.7c-10.9-4.5-26.6-0.3-36.6,11.2L692,434.5
			l-44.7-67.1c-8.4-12.7-27-19.3-41.1-14.7c-14.1,4.5-21,19.8-15.3,33.9L643,492.3l-74.9,84.7c-10,11.5-11.5,31.4-3.4,44.2
			l18.7,29.7c8.1,12.9,21.8,13.1,30.3,0.5l62.9-92.8l51.1,93.6c5.8,14.1,22.5,22.3,37.1,18.3l45.1-12.3
			C824.6,654.4,829.7,640.8,821.2,628.1"/>
		<path class="st2" d="M268.9,355.5c-68.6,0-124.3,66.7-124.3,149c0,82.4,55.6,149.1,124.3,149.1c68.6,0,124.2-66.7,124.2-149.1
			C393.2,422.2,337.5,355.5,268.9,355.5 M268.9,605.9c-31.9,0-57.9-45.4-57.9-101.4c0-55.9,25.9-101.3,57.9-101.3
			c31.9,0,57.8,45.4,57.8,101.3C326.7,560.5,300.8,605.9,268.9,605.9"/>
		<path class="st3" d="M431.4,315.5c-17.4-0.1-23.5,14.3-22.4,29.1l0,190.5c0.5,17.9,9.4,28.9,29.5,29.2l105,0.1
			c16.6,0.3,25.7-3.5,27.2-17.2v-33c-0.2-15.3-15.7-15.2-26.3-14.9h-43.2c-17.1-0.2-21.1-3-21.8-19.9l0.2-135.3
			c0.3-15.8-5.2-28.4-22.6-28.5L431.4,315.5z"/>
		<g>
			<path class="st7" d="M500,111.1c103.9,0,201.6,40.5,275,113.9c73.4,73.4,113.9,171.1,113.9,275c0,103.9-40.4,201.5-113.9,275
				c-73.5,73.5-171.1,113.9-275,113.9c-103.9,0-201.6-40.5-275-113.9c-73.4-73.5-113.9-171.1-113.9-275
				c0-103.9,40.4-201.6,113.9-275C298.4,151.6,396.1,111.1,500,111.1 M500,100c-106.9,0-207.3,41.6-282.9,117.2
				C141.6,292.7,100,393.2,100,500.1c0,106.8,41.6,207.3,117.1,282.8c75.6,75.6,176,117.2,282.9,117.2
				c106.8,0,207.3-41.6,282.9-117.2c75.5-75.6,117.1-176,117.1-282.8c0-106.9-41.6-207.3-117.1-282.9C707.3,141.6,606.9,100,500,100
				L500,100z"/>
		</g>
	</g>
</g>
</svg>
