<svg id="Layer_1" data-name="Layer 1" xmlns="http://www.w3.org/2000/svg" viewBox="0 0 500 163.56"><defs><style>.cls-1{fill:#fff;}</style></defs><title>download-appstore</title><path d="M2430,141.45a22.1,22.1,0,0,1-22.1,22.1H1952.1a22.11,22.11,0,0,1-22.1-22.1V22.1A22.11,22.11,0,0,1,1952.1,0h455.8A22.1,22.1,0,0,1,2430,22.1V141.45h0Z" transform="translate(-1930)"/><path class="cls-1" d="M2134.89,122.39h-9L2121,107H2104l-4.69,15.41h-8.72l16.9-52.51h10.45Zm-15.36-21.89-4.42-13.72q-0.71-2.1-2.67-9.89h-0.15c-0.53,2.24-1.34,5.52-2.5,9.89l-4.37,13.72h14.1Z" transform="translate(-1930)"/><path class="cls-1" d="M2176.19,103c0,6.46-1.75,11.52-5.26,15.27a15.37,15.37,0,0,1-11.66,5c-5,0-8.63-1.78-10.81-5.38v19.88h-8.4V97c0-4-.12-8.19-0.33-12.44h7.4l0.46,6h0.15q4.22-6.74,12.79-6.75A14,14,0,0,1,2171.71,89Q2176.18,94.34,2176.19,103Zm-8.58.3a15.53,15.53,0,0,0-2.48-9.1,8.93,8.93,0,0,0-13-1.7,9.69,9.69,0,0,0-3.32,5.44,11.21,11.21,0,0,0-.38,2.57v6.3a10.09,10.09,0,0,0,2.53,7,8.42,8.42,0,0,0,6.57,2.83A8.6,8.6,0,0,0,2165,113Q2167.61,109.29,2167.61,103.29Z" transform="translate(-1930)"/><path class="cls-1" d="M2217.79,103c0,6.46-1.75,11.52-5.25,15.27a15.4,15.4,0,0,1-11.68,5c-5,0-8.61-1.78-10.81-5.38v19.88h-8.42V97q0-6.07-.31-12.44h7.39l0.49,6h0.14c2.83-4.5,7.08-6.75,12.79-6.75A14,14,0,0,1,2213.31,89Q2217.8,94.34,2217.79,103Zm-8.57.3a15.55,15.55,0,0,0-2.49-9.1,8.66,8.66,0,0,0-7.34-3.75,8.75,8.75,0,0,0-5.64,2.06,9.74,9.74,0,0,0-3.32,5.44,11.35,11.35,0,0,0-.38,2.57v6.3a10.09,10.09,0,0,0,2.53,7,8.43,8.43,0,0,0,6.57,2.83,8.6,8.6,0,0,0,7.42-3.66C2208.35,110.51,2209.23,107.3,2209.23,103.29Z" transform="translate(-1930)"/><path class="cls-1" d="M2265.33,107.66a14,14,0,0,1-4.66,10.91q-5.15,4.6-14.31,4.6c-5.66,0-10.19-1.1-13.61-3.27l2-7a23.49,23.49,0,0,0,12.14,3.27c3.18,0,5.65-.72,7.41-2.13a7,7,0,0,0,2.64-5.75,7.33,7.33,0,0,0-2.17-5.35c-1.46-1.46-3.87-2.8-7.25-4.05q-13.77-5.13-13.78-15a13.23,13.23,0,0,1,4.87-10.6q4.87-4.13,12.9-4.13a25.67,25.67,0,0,1,11.93,2.49l-2.13,6.86A20.76,20.76,0,0,0,2251.18,76a10.43,10.43,0,0,0-7,2.17,6.29,6.29,0,0,0-2.1,4.77,6.47,6.47,0,0,0,2.41,5.15q2.11,1.87,7.63,4c4.54,1.81,7.84,3.95,10,6.4A13.4,13.4,0,0,1,2265.33,107.66Z" transform="translate(-1930)"/><path class="cls-1" d="M2290.34,90.82H2281v18.41c0,4.67,1.65,7,4.93,7a15.43,15.43,0,0,0,3.74-.37l0.23,6.37a18.83,18.83,0,0,1-6.54.93,10,10,0,0,1-7.79-3q-2.82-3-2.82-10.2V90.82h-5.52v-6.3h5.52V77.59L2281,75.1v9.43h9.29v6.3h0Z" transform="translate(-1930)"/><path class="cls-1" d="M2329.84,103.15c0,5.83-1.66,10.59-5,14.34q-5.24,5.75-13.87,5.76-8.35,0-13.3-5.52c-3.29-3.68-4.93-8.35-4.93-14q0-8.8,5.1-14.4c3.41-3.75,8-5.6,13.75-5.6,5.57,0,10,1.83,13.41,5.52C2328.22,92.85,2329.84,97.49,2329.84,103.15Zm-8.72.19a16.9,16.9,0,0,0-2.26-8.93,8.72,8.72,0,0,0-15.27,0,17,17,0,0,0-2.27,9.07,16.78,16.78,0,0,0,2.27,8.94,8.48,8.48,0,0,0,7.63,4.5c3.21,0,5.73-1.52,7.55-4.6A16.65,16.65,0,0,0,2321.12,103.34Z" transform="translate(-1930)"/><path class="cls-1" d="M2355.16,91.92a14.05,14.05,0,0,0-2.64-.22,8,8,0,0,0-6.86,3.35,12.49,12.49,0,0,0-2.1,7.47v19.87h-8.42v-26c0-4.34-.08-8.32-0.23-11.91h7.32l0.32,7.24h0.22a12.78,12.78,0,0,1,4.21-6,10.08,10.08,0,0,1,6.08-2,13.88,13.88,0,0,1,2.1.14v8h0Z" transform="translate(-1930)"/><path class="cls-1" d="M2391.47,101.67a21,21,0,0,1-.31,3.82h-25.25q0.16,5.6,3.67,8.56a12.44,12.44,0,0,0,8.26,2.65,27.41,27.41,0,0,0,10.2-1.81l1.33,5.86a31.56,31.56,0,0,1-12.71,2.33q-8.78,0-13.82-5.17c-3.34-3.45-5-8.09-5-13.9s1.57-10.47,4.68-14.27a16.19,16.19,0,0,1,13.26-6.07q8.2,0,12.39,6.07A20.56,20.56,0,0,1,2391.47,101.67Zm-8-2.2a11.52,11.52,0,0,0-1.63-6.46,7.39,7.39,0,0,0-6.71-3.51,8,8,0,0,0-6.7,3.45,12.46,12.46,0,0,0-2.5,6.53h17.54Z" transform="translate(-1930)"/><path class="cls-1" d="M2109.37,56h-3.77l-2.07-6.49h-7.18l-2,6.49h-3.67l7.12-22.1h4.4Zm-6.46-9.22L2101,41q-0.29-.89-1.11-4.17h-0.06q-0.33,1.41-1.05,4.17L2097,46.73h5.94Z" transform="translate(-1930)"/><path class="cls-1" d="M2126.55,40l-6,15.94h-3.44L2111.24,40h3.8l2.72,8.43q0.69,2.1,1.15,4h0.1q0.39-1.74,1.15-4l2.69-8.43h3.71Z" transform="translate(-1930)"/><path class="cls-1" d="M2142.56,56h-3.18l-0.26-1.84H2139a5.47,5.47,0,0,1-4.66,2.2,4.79,4.79,0,0,1-3.64-1.44,4.53,4.53,0,0,1-1.25-3.24,5,5,0,0,1,2.44-4.46,12.7,12.7,0,0,1,6.87-1.51v-0.3q0-3.15-3.31-3.15a7.43,7.43,0,0,0-4.16,1.18l-0.72-2.33a10.25,10.25,0,0,1,5.48-1.38q6.26,0,6.26,6.59v5.87A24.64,24.64,0,0,0,2142.56,56Zm-3.67-5.48V48q-5.87-.1-5.87,3.21a2.39,2.39,0,0,0,.69,1.87,2.47,2.47,0,0,0,1.73.62,3.56,3.56,0,0,0,2.17-.74,3,3,0,0,0,1.22-1.89A2.57,2.57,0,0,0,2138.88,50.47Z" transform="translate(-1930)"/><path class="cls-1" d="M2152.56,35.26a2,2,0,0,1-.62,1.54,2.25,2.25,0,0,1-1.61.59,2,2,0,0,1-1.49-.61,2.07,2.07,0,0,1-.61-1.52,2,2,0,0,1,.62-1.51,2.31,2.31,0,0,1,3.08,0A2,2,0,0,1,2152.56,35.26ZM2152.17,56h-3.54V40h3.54V56Z" transform="translate(-1930)"/><path class="cls-1" d="M2162.13,56h-3.54V32.7h3.54V56Z" transform="translate(-1930)"/><path class="cls-1" d="M2180.53,56h-3.18l-0.26-1.84H2177a5.47,5.47,0,0,1-4.66,2.2,4.79,4.79,0,0,1-3.64-1.44,4.52,4.52,0,0,1-1.25-3.24,5,5,0,0,1,2.44-4.46,12.7,12.7,0,0,1,6.87-1.51v-0.3q0-3.15-3.31-3.15a7.43,7.43,0,0,0-4.16,1.18l-0.72-2.33a10.25,10.25,0,0,1,5.48-1.38q6.26,0,6.26,6.59v5.87A25.1,25.1,0,0,0,2180.53,56Zm-3.67-5.48V48q-5.87-.1-5.87,3.21a2.4,2.4,0,0,0,.68,1.87,2.48,2.48,0,0,0,1.73.62,3.56,3.56,0,0,0,2.17-.74,3,3,0,0,0,1.22-1.89A2.53,2.53,0,0,0,2176.86,50.47Z" transform="translate(-1930)"/><path class="cls-1" d="M2201.82,47.75a9,9,0,0,1-2.23,6.43,6.31,6.31,0,0,1-4.82,2.13,5.37,5.37,0,0,1-5-2.82h-0.07l-0.2,2.46h-3c0.09-1.29.13-2.72,0.13-4.3v-19h3.54v9.64a5.49,5.49,0,0,1,5.11-2.66A5.86,5.86,0,0,1,2200,41.9,8.91,8.91,0,0,1,2201.82,47.75Zm-3.61.13a6.41,6.41,0,0,0-1.05-3.81,3.78,3.78,0,0,0-5.48-.75,4.16,4.16,0,0,0-1.41,2.26,4.94,4.94,0,0,0-.13,1.11v2.79a4,4,0,0,0,1.1,2.82,3.59,3.59,0,0,0,2.74,1.18A3.65,3.65,0,0,0,2197.1,52,6.77,6.77,0,0,0,2198.21,47.88Z" transform="translate(-1930)"/><path class="cls-1" d="M2210.08,56h-3.54V32.7h3.54V56Z" transform="translate(-1930)"/><path class="cls-1" d="M2229,47.23a8.49,8.49,0,0,1-.13,1.61h-10.63a4.65,4.65,0,0,0,1.54,3.61,5.26,5.26,0,0,0,3.48,1.12,11.72,11.72,0,0,0,4.3-.75l0.56,2.46a13.33,13.33,0,0,1-5.35,1,7.73,7.73,0,0,1-5.82-2.18,8,8,0,0,1-2.12-5.85,9.13,9.13,0,0,1,2-6,6.79,6.79,0,0,1,5.58-2.56,5.94,5.94,0,0,1,5.21,2.56A8.62,8.62,0,0,1,2229,47.23Zm-3.38-.92a4.85,4.85,0,0,0-.69-2.72,3.09,3.09,0,0,0-2.82-1.48,3.36,3.36,0,0,0-2.82,1.44,5.31,5.31,0,0,0-1.05,2.75h7.38Z" transform="translate(-1930)"/><path class="cls-1" d="M2257.87,47.85a8.76,8.76,0,0,1-2.1,6,7.5,7.5,0,0,1-5.84,2.43,7.13,7.13,0,0,1-5.59-2.33,8.47,8.47,0,0,1-2.08-5.87A8.65,8.65,0,0,1,2244.4,42a7.43,7.43,0,0,1,5.79-2.36,7.27,7.27,0,0,1,5.64,2.33A8.4,8.4,0,0,1,2257.87,47.85Zm-3.67.08a7.13,7.13,0,0,0-1-3.76,3.5,3.5,0,0,0-3.18-1.9,3.55,3.55,0,0,0-3.24,1.9,7.25,7.25,0,0,0-1,3.83,7.12,7.12,0,0,0,1,3.76,3.63,3.63,0,0,0,6.39,0A7.1,7.1,0,0,0,2254.19,47.93Z" transform="translate(-1930)"/><path class="cls-1" d="M2276.43,56h-3.54V46.8q0-4.23-3.21-4.23a3.19,3.19,0,0,0-2.56,1.17,4.12,4.12,0,0,0-1,2.74V56h-3.54V44.57q0-2.1-.13-4.56h3.12l0.16,2.46h0.1a5.11,5.11,0,0,1,1.84-1.9,6,6,0,0,1,3.21-.88,5.07,5.07,0,0,1,3.71,1.44,7,7,0,0,1,1.84,5.28V56h0Z" transform="translate(-1930)"/><path class="cls-1" d="M2299.22,42.67h-3.9v7.74q0,3,2.07,3a6.21,6.21,0,0,0,1.57-.16l0.1,2.69a8,8,0,0,1-2.75.39A4.24,4.24,0,0,1,2293,55q-1.18-1.28-1.18-4.3v-8h-2.33V40h2.33V37.09l3.48-1.05v4h3.9v2.66h0Z" transform="translate(-1930)"/><path class="cls-1" d="M2318.08,56h-3.54V46.87q0-4.3-3.21-4.3a3.38,3.38,0,0,0-3.38,2.49,4.33,4.33,0,0,0-.16,1.28V56h-3.54V32.7h3.54v9.58h0.07a5.37,5.37,0,0,1,4.79-2.59,4.93,4.93,0,0,1,3.64,1.44,7.26,7.26,0,0,1,1.8,5.35V56h0Z" transform="translate(-1930)"/><path class="cls-1" d="M2336.25,47.23a8.43,8.43,0,0,1-.13,1.61h-10.63a4.65,4.65,0,0,0,1.54,3.61,5.25,5.25,0,0,0,3.47,1.12,11.72,11.72,0,0,0,4.3-.75l0.56,2.46a13.34,13.34,0,0,1-5.35,1,7.73,7.73,0,0,1-5.82-2.18,8.05,8.05,0,0,1-2.11-5.85,9.14,9.14,0,0,1,2-6,6.79,6.79,0,0,1,5.58-2.56,5.94,5.94,0,0,1,5.21,2.56A8.62,8.62,0,0,1,2336.25,47.23Zm-3.38-.92a4.84,4.84,0,0,0-.69-2.72,3.09,3.09,0,0,0-2.82-1.48,3.36,3.36,0,0,0-2.82,1.44,5.29,5.29,0,0,0-1.05,2.75h7.38Z" transform="translate(-1930)"/><path class="cls-1" d="M2051.59,59.3c-1.36,1.3-2.71,2.54-4,3.84a26.63,26.63,0,0,0-6.36,10.16,22.36,22.36,0,0,0-1.08,7.34A26.17,26.17,0,0,0,2042,90.69a21.12,21.12,0,0,0,8.14,9.7c1.18,0.78,2.46,1.4,3.7,2.07,0.6,0.33.63,0.35,0.37,1a108.4,108.4,0,0,1-6.64,14.16,43.92,43.92,0,0,1-6.79,9.28,17.24,17.24,0,0,1-7.46,4.8,11,11,0,0,1-5.49.28,25.84,25.84,0,0,1-4.94-1.75c-1.46-.65-2.93-1.29-4.39-2a9.64,9.64,0,0,0-4.06-.69c-2,0-3.92,0-5.87.15a10.08,10.08,0,0,0-2.91.72c-2.1.84-4.13,1.84-6.22,2.69a11.71,11.71,0,0,1-11.13-.62,23.74,23.74,0,0,1-5.69-4.8,66.18,66.18,0,0,1-9.34-14.27,59.38,59.38,0,0,1-3.93-9.37q-1.11-3.54-2-7.16a53.56,53.56,0,0,1-1.2-17.54c0.21-1.65.35-3.32,0.67-4.95a33.71,33.71,0,0,1,2-6.46,30.89,30.89,0,0,1,6.46-9.79,23.49,23.49,0,0,1,8.79-5.73,22.52,22.52,0,0,1,8-1.43,28.44,28.44,0,0,1,3.86.17,25.94,25.94,0,0,1,4.21,1c2.32,0.77,4.58,1.68,6.88,2.48a11.52,11.52,0,0,0,5.66.65,26.76,26.76,0,0,0,4.5-1.3c2.33-.82,4.66-1.67,7-2.34a26.26,26.26,0,0,1,9.24-.9,24,24,0,0,1,12,4.26A26.83,26.83,0,0,1,2051.59,59.3Z" transform="translate(-1930)"/><path class="cls-1" d="M2030.94,24.11c0,1.08,0,2,0,2.83a24.66,24.66,0,0,1-4.51,13.36,25.44,25.44,0,0,1-6.23,6.4,17.1,17.1,0,0,1-7.12,3.07c-0.84.13-1.68,0.23-2.52,0.31a6.49,6.49,0,0,1-.95,0,28.15,28.15,0,0,1,0-3.27,34.41,34.41,0,0,1,1-5.45,24.1,24.1,0,0,1,4.67-8.95,22.32,22.32,0,0,1,8-6.12,19.83,19.83,0,0,1,5.36-1.69C2029.41,24.46,2030.07,24.29,2030.94,24.11Z" transform="translate(-1930)"/></svg>